<?xml version="1.0" encoding="utf-8"?>
<!-- Generator: Adobe Illustrator 18.1.0, SVG Export Plug-In . SVG Version: 6.00 Build 0)  -->
<svg version="1.1" id="Layer_1" xmlns="http://www.w3.org/2000/svg" xmlns:xlink="http://www.w3.org/1999/xlink" x="0px" y="0px"
	 viewBox="0 0 2000 2000" enable-background="new 0 0 2000 2000" xml:space="preserve">
<g>
	<path fill="none" d="M897.4,1168.9l0,0.2C897.5,1169.3,897.5,1169.1,897.4,1168.9z"/>
	<path fill="#008CA7" d="M826.7,1387.4c0.3,0,0.6,0,0.9,0c-1.3-0.2-2.5-0.4-3.8-0.6C824.8,1387,825.7,1387.2,826.7,1387.4z"/>
	<path fill="#008CA7" d="M811.1,1384.2c-2-0.5-4-1-6-1.6C807.1,1383.2,809.1,1383.8,811.1,1384.2z"/>
	<path fill="#008CA7" d="M837.3,1315.1c-0.2-0.6-0.4-1.2-0.4-1.9c0-2.8,2.1-4.9,4.8-5.2l91.7-149.5c-0.2,0-0.3,0.1-0.5,0.1
		c-5.9,0-10.7-4.8-10.7-10.6c0-5.9,4.8-10.7,10.7-10.7c4.3,0,8,2.6,9.7,6.3l84.6-137.8c0,0,1.1,1.9,3,5.4l1.3-3.3l185.1-83
		l-197.9,63.8c0,0-67-52.7-124.5,0c-50.1,45.9-21.8,126-5.6,162c-44.3,57.6-183.7,201-387.1,55.1c6.4,6.4-44.7,108.5,12.8,178.8
		l153.2-102.2c0,0,48.5,72.5,130.1,98.1c-0.1-0.1-0.2-0.2-0.2-0.2L837.3,1315.1z M975.6,1055.5c3.9,0,7.1,3.2,7.1,7.1
		c0,3.9-3.2,7.1-7.1,7.1c-3.9,0-7.1-3.2-7.1-7.1C968.5,1058.7,971.6,1055.5,975.6,1055.5z M950.7,1037.7c2,0,3.6,1.6,3.6,3.6
		c0,2-1.6,3.5-3.6,3.5c-2,0-3.5-1.6-3.5-3.5C947.1,1039.3,948.7,1037.7,950.7,1037.7z M954.2,1069.7c3.9,0,7.1,3.2,7.1,7.1
		c0,3.9-3.2,7.1-7.1,7.1c-3.9,0-7.1-3.2-7.1-7.1C947.1,1072.9,950.3,1069.7,954.2,1069.7z M943.6,1112.4c2,0,3.6,1.6,3.6,3.5
		c0,2-1.6,3.6-3.6,3.6c-2,0-3.5-1.6-3.5-3.6C940,1113.9,941.6,1112.4,943.6,1112.4z M936.5,1107c0,4.9-4,8.9-8.9,8.9
		c-4.9,0-8.9-4-8.9-8.9c0-4.9,4-8.9,8.9-8.9C932.5,1098.1,936.5,1102.1,936.5,1107z M929.4,1075c0,2.9-2.4,5.3-5.3,5.3
		c-2.9,0-5.3-2.4-5.3-5.3c0-3,2.4-5.3,5.3-5.3C927,1069.7,929.4,1072.1,929.4,1075z M916.9,1027c3,0,5.3,2.4,5.3,5.3
		c0,3-2.4,5.3-5.3,5.3c-2.9,0-5.3-2.4-5.3-5.3C911.6,1029.4,914,1027,916.9,1027z M918.7,1051.9c3.9,0,7.1,3.2,7.1,7.1
		c0,3.9-3.2,7.1-7.1,7.1c-3.9,0-7.1-3.2-7.1-7.1C911.6,1055.1,914.8,1051.9,918.7,1051.9z M900.9,1190.6c-1.9,0-3.6-1.6-3.6-3.6
		c0-2,1.6-3.5,3.6-3.5c1.9,0,3.5,1.6,3.5,3.5C904.5,1188.9,902.9,1190.6,900.9,1190.6z M897.3,1169l0-0.2
		C897.5,1169.1,897.5,1169.3,897.3,1169z M886.7,1208.3c3.9,0,7.1,3.2,7.1,7.1c0,3.9-3.2,7.1-7.1,7.1c-3.9,0-7.1-3.2-7.1-7.1
		C879.6,1211.5,882.8,1208.3,886.7,1208.3z M845.8,1251c4.9,0,8.9,4,8.9,8.9c0,4.9-4,8.9-8.9,8.9c-4.9,0-8.9-4-8.9-8.9
		C837,1254.9,840.9,1251,845.8,1251z M837,1272.3c5.9,0,10.6,4.8,10.6,10.7c0,5.9-4.7,10.7-10.6,10.7c-5.9,0-10.7-4.8-10.7-10.7
		C826.3,1277.1,831.1,1272.3,837,1272.3z M815.6,1251c4,0,7.1,3.2,7.1,7.1c0,3.9-3.2,7.1-7.1,7.1c-3.9,0-7.1-3.2-7.1-7.1
		C808.5,1254.1,811.7,1251,815.6,1251z M799.6,1286.5c8.8,0,16,7.1,16,16c0,8.8-7.1,16-16,16c-8.8,0-16-7.2-16-16
		C783.6,1293.7,790.8,1286.5,799.6,1286.5z M726.8,1314.9c-2,0-3.6-1.6-3.6-3.5c0-2,1.6-3.6,3.6-3.6c1.9,0,3.5,1.6,3.5,3.6
		C730.3,1313.4,728.7,1314.9,726.8,1314.9z M753.4,1332.7c-4.9,0-8.9-4-8.9-8.9s4-8.9,8.9-8.9c4.9,0,8.9,4,8.9,8.9
		S758.3,1332.7,753.4,1332.7z M789,1346.9c-3,0-5.3-2.4-5.3-5.3c0-2.9,2.4-5.3,5.3-5.3c2.9,0,5.3,2.4,5.3,5.3
		C794.3,1344.5,791.9,1346.9,789,1346.9z"/>
	<path fill="#38B97A" d="M1012.3,1097.2l18.3-85.3c-0.2-0.3-0.3-0.5-0.4-0.8c-1.9-3.5-3-5.4-3-5.4l-84.6,137.8c0.6,1.3,1,2.8,1,4.4
		c0,5.7-4.5,10.2-10.1,10.5l-91.7,149.5c0.2,0,0.4-0.1,0.6-0.1c3,0,5.3,2.4,5.3,5.3c0,2.9-2.4,5.3-5.3,5.3c-2.3,0-4.2-1.4-4.9-3.4
		l-40,65.2c0,0,0.2,0.1,0.2,0.2c0.1,0.1,0.1,0.1,0.3,0.2c2.4,0.7,4.8,1.4,7.2,2c2,0.5,4,1.1,6,1.6c4.2,1,8.4,1.8,12.7,2.5
		c1.3,0.2,2.5,0.4,3.8,0.6c21.5,3.1,44.8,2.8,69.7-2.8C1044.2,1352.6,1082.5,1180.2,1012.3,1097.2z M932.9,1304.3
		c0-2,1.6-3.6,3.6-3.6c2,0,3.6,1.6,3.6,3.6c0,1.9-1.6,3.5-3.6,3.5C934.5,1307.8,932.9,1306.2,932.9,1304.3z M947.1,1247.4
		c0-2,1.6-3.6,3.5-3.6c2,0,3.6,1.6,3.6,3.6c0,2-1.6,3.5-3.6,3.5C948.7,1251,947.1,1249.4,947.1,1247.4z M957.8,1215.4
		c0-2,1.6-3.6,3.6-3.6c2,0,3.5,1.6,3.5,3.6c0,1.9-1.6,3.5-3.5,3.5C959.4,1219,957.8,1217.4,957.8,1215.4z M1000.4,1169.2
		c3.9,0,7.1,3.2,7.1,7.1c0,3.9-3.2,7.1-7.1,7.1c-3.9,0-7.1-3.2-7.1-7.1C993.3,1172.4,996.5,1169.2,1000.4,1169.2z M979.1,1172.8
		c2,0,3.5,1.6,3.5,3.5c0,1.9-1.6,3.6-3.5,3.6c-2,0-3.6-1.6-3.6-3.6C975.6,1174.4,977.2,1172.8,979.1,1172.8z M968.5,1130.1
		c3.9,0,7.1,3.2,7.1,7.1c0,3.9-3.2,7.1-7.1,7.1c-3.9,0-7.1-3.2-7.1-7.1C961.3,1133.3,964.5,1130.1,968.5,1130.1z M954.2,1169.2
		c3.9,0,7.1,3.2,7.1,7.1c0,3.9-3.2,7.1-7.1,7.1c-3.9,0-7.1-3.2-7.1-7.1C947.1,1172.4,950.3,1169.2,954.2,1169.2z M941.8,1201.2
		c2.9,0,5.3,2.4,5.3,5.3c0,2.9-2.4,5.3-5.3,5.3c-2.9,0-5.3-2.4-5.3-5.3C936.5,1203.6,938.9,1201.2,941.8,1201.2z M931.1,1254.5
		c2.9,0,5.3,2.4,5.3,5.3s-2.4,5.3-5.3,5.3c-3,0-5.3-2.4-5.3-5.3S928.2,1254.5,931.1,1254.5z M922.2,1293.6c2,0,3.6,1.6,3.6,3.6
		c0,2-1.6,3.5-3.6,3.5c-2,0-3.5-1.6-3.5-3.5C918.7,1295.2,920.3,1293.6,922.2,1293.6z M908,1229.7c3.9,0,7.1,3.2,7.1,7.1
		c0,3.9-3.2,7.1-7.1,7.1c-3.9,0-7.1-3.2-7.1-7.1C900.9,1232.8,904.1,1229.7,908,1229.7z M902.7,1247.4c4.9,0,8.9,4,8.9,8.9
		c0,4.9-4,8.9-8.9,8.9c-4.9,0-8.9-4-8.9-8.9C893.8,1251.4,897.8,1247.4,902.7,1247.4z M883.2,1290c7.9,0,14.2,6.4,14.2,14.2
		c0,7.8-6.3,14.2-14.2,14.2c-7.9,0-14.2-6.4-14.2-14.2C868.9,1296.4,875.3,1290,883.2,1290z M845.8,1364.7c-4.9,0-8.9-4-8.9-8.9
		c0-4.9,4-8.9,8.9-8.9c4.9,0,8.9,4,8.9,8.9C854.7,1360.7,850.7,1364.7,845.8,1364.7z M904.5,1339.8c-2,0-3.5-1.6-3.5-3.6
		c0-2,1.6-3.6,3.5-3.6c2,0,3.6,1.6,3.6,3.6C908,1338.2,906.4,1339.8,904.5,1339.8z"/>
	<path fill="#276681" d="M859.8,1163.3L354.9,806.5c0,0-42.8,63,30.7,123.2c0,0-37.9,18.2-27.9,53.2c10,35,47.9,41.3,47.9,41.3
		s-19,24.1,18.9,82.6C462.5,1165.3,648.4,1354.7,859.8,1163.3z"/>
	<path fill="#276681" d="M682.4,1014.2l178.8,119.2l-46.8-425.6c0,0-76.6,8.5-63.9,119.2c4.3-4.3-68.1,12.8-55.3,80.9
		C703.7,907.8,635.6,950.4,682.4,1014.2z"/>
	<path fill="#E67ECE" d="M639.9,971.7c-4.3-34.1,29.8-80.9,29.8-76.6c-17-80.9,68.1-97.9,68.1-97.9
		c-21.3-89.4,102.1-144.7,102.1-144.7l29.8,336.2c25.5-72.3,123.4-51.1,119.2-55.3c85.1-127.7,225.6-34.1,225.6-38.3
		c51.1-366.1-238.3-468.2-408.6-476.7C635.6,409.8,576,324.7,576,324.7s38.3,80.9-25.5,315C486.6,873.8,639.9,971.7,639.9,971.7z"/>
	<path fill="#EE9FDA" d="M1708.2,1176c-11.5-157.3-157.5-387.3-481-272.4c0,0,72.4,59.6,34.1,161.7c-38.3,102.2-183,17-114.9-38.3
		c34-29.8-85.7-25.6-89.4,89.4c-4.3,131.9,136.2,374.6,425.6,353.3c217.1-8.5,306.5-144.7,306.5-144.7S1720.9,1350.5,1708.2,1176z"
		/>
	<path fill="#E67ECE" d="M1231.5,856.7l4.2,12.8c276.7-114.9,370.3,97.9,434.2,89.4C1886.8,918,1855.8,578.1,1853,552
		c-0.4,7.8-16.8,36.9-264-23C1244.2,460.9,1231.5,856.7,1231.5,856.7z"/>
	<path fill="#E67ECE" d="M1852.9,550.3c0,0,0.1,0.7,0.2,1.8C1853.1,551,1852.9,550.3,1852.9,550.3z"/>
	<path fill="#E56FC0" d="M1235.7,699.2c8.5-55.3,46.9-149,149-187.3c102.2-38.3,80.9-136.2-21.3-229.9
		c-98.2-90-70.5-152.5-64.5-157.2c-297.2,140.4-246.3,327.4-246.3,327.4C1193.1,533.2,1235.7,707.7,1235.7,699.2z"/>
	<path fill="#E56FC0" d="M1299,124.9c0.2-0.1,0.4-0.2,0.6-0.3C1299.4,124.6,1299.2,124.8,1299,124.9z"/>
	<path fill="#B1D8AC" d="M333.4,592.8c-42.6,187.3,178.8,276.6,178.8,276.6l42.6,38.3C452.6,805.6,435.5,626.9,435.5,626.9
		s68.1,187.3,72.4,25.5c4.2-161.7-208.6-187.3-208.6-187.3S354.7,486.4,333.4,592.8z"/>
	<path fill="#7DBF7A" d="M1005.9,426h8.5C878.2,316,886.7,224.2,895.2,266.8c8.5,42.6,106.4,124.7,123.4,103.4
		c17-46.8,17-131.3-63.8-148.3c-80.9-17-63.8-78.8-72.4-70.3C686.7,389.9,1005.9,426,1005.9,426z"/>
	<path fill="#A9D4A5" d="M1589,499.2c191.6,8.5,212.8-217.1,212.8-217.1s-25.5,51.1-161.8,25.5c-161.7-34-166,174.5-166,174.5
		c46.8-21.3,195.8-72.4,195.8-72.4S1495.4,503.4,1589,499.2z"/>
	<path fill="#B1D8AC" d="M895.2,1576c0,0-8.5,89.4-76.6,89.4c-68.1,0,38.3,102.2,102.2,38.3c55.4-59.6-38.3,93.6-132,4.3
		c-93.6-89.4,38.3-229.9,153.2-285.2c0,0-200,4.3-234.1,187.3c-34.1,183,200.1,255.4,255.4,123.4
		C1001.6,1622.9,895.2,1576,895.2,1576z"/>
	<path fill="#7DBF7A" d="M282.3,1154.7c-17-51.1,21.3-76.6,21.3-76.6s-123.4,4.2-127.7,140.5c-4.3,136.2,187.3,170.2,225.6,89.4
		c21.2-51-80.6,16.8-131.7-63.5c19.6,11.8,119.1,62,178.5-42.9C448.3,1201.5,324.9,1252.6,282.3,1154.7z"/>
	<path fill="#EE9FDA" d="M784.6,1410.1c0,0-234.1-76.6-204.3,68.1C597.3,1495.2,605.8,1576,784.6,1410.1z"/>
	<path fill="#EE9FDA" d="M580.3,1559c-68.1,68.1,72.3,149,80.9,68.1c8.5-80.9,72.3-144.7,72.3-144.7
		C678.2,1537.7,631.3,1516.5,580.3,1559z"/>
	<path fill="#7DBF7A" d="M1142.6,1690.6c-0.3,0.3-0.5,0.4-0.5,0.4S1142.3,1690.8,1142.6,1690.6z"/>
	<path fill="#7DBF7A" d="M1083.6,1280.3c-13.9-19.2,11.7,129.8,71.3,206.4c38.3,68.1-93.7-51.1-97.9-183c0,0-106.4,157.5,12.8,255.4
		c111.6,91.7,77.6,127.4,72.9,131.5c10.4-8.6,174.7-147.8,63.3-255C1099.5,1329.2,1097.4,1299.5,1083.6,1280.3z"/>
	<path fill="#A3DCB8" d="M883.2,1318.5c7.9,0,14.2-6.4,14.2-14.2c0-7.9-6.3-14.2-14.2-14.2c-7.9,0-14.2,6.4-14.2,14.2
		C868.9,1312.1,875.3,1318.5,883.2,1318.5z"/>
	<path fill="#A3DCB8" d="M931.1,1265.2c2.9,0,5.3-2.4,5.3-5.3s-2.4-5.3-5.3-5.3c-3,0-5.3,2.4-5.3,5.3S928.2,1265.2,931.1,1265.2z"/>
	<path fill="#A3DCB8" d="M908,1243.9c3.9,0,7.1-3.2,7.1-7.1c0-3.9-3.2-7.1-7.1-7.1c-3.9,0-7.1,3.2-7.1,7.1
		C900.9,1240.7,904.1,1243.9,908,1243.9z"/>
	<path fill="#A3DCB8" d="M941.8,1211.9c2.9,0,5.3-2.4,5.3-5.3c0-2.9-2.4-5.3-5.3-5.3c-2.9,0-5.3,2.4-5.3,5.3
		C936.5,1209.5,938.9,1211.9,941.8,1211.9z"/>
	<path fill="#A3DCB8" d="M954.2,1183.4c3.9,0,7.1-3.2,7.1-7.1c0-3.9-3.2-7.1-7.1-7.1c-3.9,0-7.1,3.2-7.1,7.1
		C947.1,1180.2,950.3,1183.4,954.2,1183.4z"/>
	<path fill="#A3DCB8" d="M964.9,1215.4c0-2-1.6-3.6-3.5-3.6c-2,0-3.6,1.6-3.6,3.6c0,1.9,1.6,3.5,3.6,3.5
		C963.3,1219,964.9,1217.4,964.9,1215.4z"/>
	<path fill="#A3DCB8" d="M954.2,1247.4c0-2-1.6-3.6-3.6-3.6c-2,0-3.5,1.6-3.5,3.6c0,2,1.6,3.5,3.5,3.5
		C952.6,1251,954.2,1249.4,954.2,1247.4z"/>
	<path fill="#A3DCB8" d="M902.7,1265.2c4.9,0,8.9-4,8.9-8.9c0-4.9-4-8.9-8.9-8.9c-4.9,0-8.9,4-8.9,8.9
		C893.8,1261.2,897.8,1265.2,902.7,1265.2z"/>
	<path fill="#A3DCB8" d="M940,1304.3c0-2-1.6-3.6-3.6-3.6c-2,0-3.6,1.6-3.6,3.6c0,1.9,1.6,3.5,3.6,3.5
		C938.4,1307.8,940,1306.2,940,1304.3z"/>
	<path fill="#A3DCB8" d="M904.5,1332.7c-2,0-3.5,1.6-3.5,3.6c0,1.9,1.6,3.6,3.5,3.6c2,0,3.6-1.6,3.6-3.6
		C908,1334.3,906.4,1332.7,904.5,1332.7z"/>
	<path fill="#A3DCB8" d="M922.2,1300.7c2,0,3.6-1.6,3.6-3.5c0-2-1.6-3.6-3.6-3.6c-2,0-3.5,1.6-3.5,3.6
		C918.7,1299.2,920.3,1300.7,922.2,1300.7z"/>
	<path fill="#A3DCB8" d="M845.8,1346.9c-4.9,0-8.9,4-8.9,8.9c0,4.9,4,8.9,8.9,8.9c4.9,0,8.9-4,8.9-8.9
		C854.7,1350.9,850.7,1346.9,845.8,1346.9z"/>
	<path fill="#A3DCB8" d="M837,1313.2c0,0.7,0.2,1.3,0.4,1.9c0.8,2,2.7,3.4,4.9,3.4c3,0,5.3-2.4,5.3-5.3c0-3-2.4-5.3-5.3-5.3
		c-0.2,0-0.4,0.1-0.6,0.1C839,1308.2,837,1310.4,837,1313.2z"/>
	<path fill="#A3DCB8" d="M1000.4,1183.4c3.9,0,7.1-3.2,7.1-7.1c0-3.9-3.2-7.1-7.1-7.1c-3.9,0-7.1,3.2-7.1,7.1
		C993.3,1180.2,996.5,1183.4,1000.4,1183.4z"/>
	<path fill="#A3DCB8" d="M968.5,1144.4c3.9,0,7.1-3.2,7.1-7.1c0-3.9-3.2-7.1-7.1-7.1c-3.9,0-7.1,3.2-7.1,7.1
		C961.3,1141.1,964.5,1144.4,968.5,1144.4z"/>
	<path fill="#A3DCB8" d="M979.1,1179.9c2,0,3.5-1.6,3.5-3.6c0-2-1.6-3.5-3.5-3.5c-2,0-3.6,1.6-3.6,3.5
		C975.6,1178.3,977.2,1179.9,979.1,1179.9z"/>
	<path fill="#00A85D" d="M918.7,1075c0,2.9,2.4,5.3,5.3,5.3c2.9,0,5.3-2.4,5.3-5.3c0-3-2.4-5.3-5.3-5.3
		C921.1,1069.7,918.7,1072.1,918.7,1075z"/>
	<path fill="#00A85D" d="M918.7,1107c0,4.9,4,8.9,8.9,8.9c4.9,0,8.9-4,8.9-8.9c0-4.9-4-8.9-8.9-8.9
		C922.7,1098.1,918.7,1102.1,918.7,1107z"/>
	<path fill="#00A85D" d="M954.2,1083.9c3.9,0,7.1-3.2,7.1-7.1c0-3.9-3.2-7.1-7.1-7.1c-3.9,0-7.1,3.2-7.1,7.1
		C947.1,1080.7,950.3,1083.9,954.2,1083.9z"/>
	<path fill="#00A85D" d="M918.7,1066.1c3.9,0,7.1-3.2,7.1-7.1c0-3.9-3.2-7.1-7.1-7.1c-3.9,0-7.1,3.2-7.1,7.1
		C911.6,1063,914.8,1066.1,918.7,1066.1z"/>
	<path fill="#00A85D" d="M950.7,1044.8c2,0,3.6-1.6,3.6-3.5c0-2-1.6-3.6-3.6-3.6c-2,0-3.5,1.6-3.5,3.6
		C947.1,1043.2,948.7,1044.8,950.7,1044.8z"/>
	<path fill="#00A85D" d="M916.9,1037.7c3,0,5.3-2.4,5.3-5.3c0-2.9-2.4-5.3-5.3-5.3c-2.9,0-5.3,2.4-5.3,5.3
		C911.6,1035.3,914,1037.7,916.9,1037.7z"/>
	<path fill="#00A85D" d="M799.6,1318.5c8.8,0,16-7.2,16-16c0-8.8-7.1-16-16-16c-8.8,0-16,7.1-16,16
		C783.6,1311.3,790.8,1318.5,799.6,1318.5z"/>
	<path fill="#00A85D" d="M845.8,1268.7c4.9,0,8.9-4,8.9-8.9c0-4.9-4-8.9-8.9-8.9c-4.9,0-8.9,4-8.9,8.9
		C837,1264.8,840.9,1268.7,845.8,1268.7z"/>
	<path fill="#00A85D" d="M837,1293.6c5.9,0,10.6-4.8,10.6-10.7c0-5.9-4.7-10.7-10.6-10.7c-5.9,0-10.7,4.8-10.7,10.7
		C826.3,1288.8,831.1,1293.6,837,1293.6z"/>
	<path fill="#00A85D" d="M815.6,1265.2c4,0,7.1-3.2,7.1-7.1c0-3.9-3.2-7.1-7.1-7.1c-3.9,0-7.1,3.2-7.1,7.1
		C808.5,1262,811.7,1265.2,815.6,1265.2z"/>
	<path fill="#00A85D" d="M886.7,1222.5c3.9,0,7.1-3.2,7.1-7.1c0-3.9-3.2-7.1-7.1-7.1c-3.9,0-7.1,3.2-7.1,7.1
		C879.6,1219.3,882.8,1222.5,886.7,1222.5z"/>
	<path fill="#00A85D" d="M900.9,1183.4c-1.9,0-3.6,1.6-3.6,3.5c0,2,1.6,3.6,3.6,3.6c1.9,0,3.5-1.6,3.5-3.6
		C904.5,1185,902.9,1183.4,900.9,1183.4z"/>
	<path fill="#00A85D" d="M789,1336.3c-3,0-5.3,2.4-5.3,5.3c0,3,2.4,5.3,5.3,5.3c2.9,0,5.3-2.4,5.3-5.3
		C794.3,1338.6,791.9,1336.3,789,1336.3z"/>
	<path fill="#00A85D" d="M753.4,1314.9c-4.9,0-8.9,4-8.9,8.9s4,8.9,8.9,8.9c4.9,0,8.9-4,8.9-8.9S758.3,1314.9,753.4,1314.9z"/>
	<path fill="#00A85D" d="M726.8,1307.8c-2,0-3.6,1.6-3.6,3.6c0,2,1.6,3.5,3.6,3.5c1.9,0,3.5-1.6,3.5-3.5
		C730.3,1309.4,728.7,1307.8,726.8,1307.8z"/>
	<path fill="#00A85D" d="M932.9,1137.2c-5.9,0-10.7,4.8-10.7,10.7c0,5.9,4.8,10.6,10.7,10.6c0.2,0,0.3-0.1,0.5-0.1
		c5.6-0.3,10.1-4.8,10.1-10.5c0-1.6-0.4-3-1-4.4C940.9,1139.8,937.2,1137.2,932.9,1137.2z"/>
	<path fill="#00A85D" d="M943.6,1119.5c2,0,3.6-1.6,3.6-3.6c0-2-1.6-3.5-3.6-3.5c-2,0-3.5,1.6-3.5,3.5
		C940,1117.9,941.6,1119.5,943.6,1119.5z"/>
	<path fill="#00A85D" d="M975.6,1069.7c3.9,0,7.1-3.2,7.1-7.1c0-3.9-3.2-7.1-7.1-7.1c-3.9,0-7.1,3.2-7.1,7.1
		C968.5,1066.5,971.6,1069.7,975.6,1069.7z"/>
</g>
</svg>
